<svg xmlns="http://www.w3.org/2000/svg" width="229.67" height="35" viewBox="0 0 229.67 35"><rect class="svg__rect" x="0" y="0" width="96.97" height="35" fill="#000000"/><rect class="svg__rect" x="94.97" y="0" width="134.7" height="35" fill="#63C932"/><path class="svg__text" d="M13.78 19.42L13.78 19.42L15.27 19.42Q15.27 20.15 15.75 20.55Q16.23 20.95 17.12 20.95L17.12 20.95Q17.90 20.95 18.29 20.63Q18.68 20.32 18.68 19.80L18.68 19.80Q18.68 19.24 18.28 18.94Q17.89 18.63 16.85 18.32Q15.82 18.01 15.21 17.63L15.21 17.63Q14.05 16.90 14.05 15.72L14.05 15.72Q14.05 14.69 14.89 14.02Q15.73 13.35 17.07 13.35L17.07 13.35Q17.96 13.35 18.66 13.68Q19.36 14.01 19.75 14.61Q20.15 15.22 20.15 15.96L20.15 15.96L18.68 15.96Q18.68 15.29 18.26 14.91Q17.84 14.54 17.06 14.54L17.06 14.54Q16.33 14.54 15.93 14.85Q15.53 15.16 15.53 15.71L15.53 15.71Q15.53 16.18 15.96 16.50Q16.40 16.81 17.39 17.10Q18.39 17.40 18.99 17.78Q19.60 18.16 19.88 18.65Q20.16 19.13 20.16 19.79L20.16 19.79Q20.16 20.86 19.34 21.49Q18.52 22.12 17.12 22.12L17.12 22.12Q16.20 22.12 15.42 21.77Q14.64 21.43 14.21 20.83Q13.78 20.22 13.78 19.42ZM26.13 14.66L23.49 14.66L23.49 13.47L30.26 13.47L30.26 14.66L27.60 14.66L27.60 22L26.13 22L26.13 14.66ZM33.88 19.16L33.88 19.16L33.88 13.47L35.36 13.47L35.36 19.18Q35.36 20.03 35.79 20.48Q36.23 20.93 37.07 20.93L37.07 20.93Q38.78 20.93 38.78 19.13L38.78 19.13L38.78 13.47L40.26 13.47L40.26 19.17Q40.26 20.53 39.39 21.32Q38.52 22.12 37.07 22.12L37.07 22.12Q35.60 22.12 34.74 21.33Q33.88 20.55 33.88 19.16ZM47.28 22L44.83 22L44.83 13.47L47.35 13.47Q48.48 13.47 49.35 13.97Q50.23 14.48 50.71 15.40Q51.19 16.33 51.19 17.52L51.19 17.52L51.19 17.95Q51.19 19.16 50.71 20.08Q50.22 21.00 49.33 21.50Q48.44 22 47.28 22L47.28 22ZM46.31 14.66L46.31 20.82L47.28 20.82Q48.44 20.82 49.07 20.09Q49.69 19.36 49.70 17.99L49.70 17.99L49.70 17.52Q49.70 16.13 49.10 15.40Q48.49 14.66 47.35 14.66L47.35 14.66L46.31 14.66ZM61.23 22L55.65 22L55.65 13.47L61.19 13.47L61.19 14.66L57.14 14.66L57.14 17.02L60.64 17.02L60.64 18.19L57.14 18.19L57.14 20.82L61.23 20.82L61.23 22ZM66.91 22L65.43 22L65.43 13.47L66.91 13.47L70.72 19.54L70.72 13.47L72.20 13.47L72.20 22L70.71 22L66.91 15.95L66.91 22ZM78.62 14.66L75.98 14.66L75.98 13.47L82.75 13.47L82.75 14.66L80.09 14.66L80.09 22L78.62 22L78.62 14.66Z" fill="#FFFFFF"/><path class="svg__text" d="M108.73 17.80L108.73 17.80Q108.73 16.54 109.33 15.54Q109.93 14.55 110.98 13.99Q112.03 13.43 113.35 13.43L113.35 13.43Q114.50 13.43 115.42 13.84Q116.35 14.25 116.96 15.02L116.96 15.02L115.45 16.39Q114.64 15.40 113.47 15.40L113.47 15.40Q112.78 15.40 112.25 15.70Q111.72 16 111.42 16.54Q111.13 17.09 111.13 17.80L111.13 17.80Q111.13 18.51 111.42 19.05Q111.72 19.60 112.25 19.90Q112.78 20.20 113.47 20.20L113.47 20.20Q114.64 20.20 115.45 19.22L115.45 19.22L116.96 20.58Q116.35 21.35 115.43 21.76Q114.50 22.17 113.35 22.17L113.35 22.17Q112.03 22.17 110.98 21.61Q109.93 21.05 109.33 20.05Q108.73 19.06 108.73 17.80ZM121.07 17.80L121.07 17.80Q121.07 16.55 121.67 15.55Q122.28 14.56 123.34 14.00Q124.40 13.43 125.73 13.43L125.73 13.43Q127.06 13.43 128.13 14.00Q129.19 14.56 129.80 15.55Q130.40 16.55 130.40 17.80L130.40 17.80Q130.40 19.05 129.80 20.04Q129.19 21.04 128.13 21.60Q127.07 22.17 125.73 22.17L125.73 22.17Q124.40 22.17 123.34 21.60Q122.28 21.04 121.67 20.04Q121.07 19.05 121.07 17.80ZM123.47 17.80L123.47 17.80Q123.47 18.51 123.77 19.05Q124.07 19.60 124.59 19.90Q125.10 20.20 125.73 20.20L125.73 20.20Q126.37 20.20 126.89 19.90Q127.40 19.60 127.70 19.05Q128.00 18.51 128.00 17.80L128.00 17.80Q128.00 17.09 127.70 16.54Q127.40 16 126.89 15.70Q126.37 15.40 125.73 15.40L125.73 15.40Q125.10 15.40 124.58 15.70Q124.07 16 123.77 16.54Q123.47 17.09 123.47 17.80ZM137.33 22L135.13 22L135.13 13.60L137.09 13.60L140.04 18.45L142.93 13.60L144.88 13.60L144.90 22L142.72 22L142.70 17.55L140.53 21.17L139.48 21.17L137.33 17.67L137.33 22ZM152.26 22L150.06 22L150.06 13.60L152.02 13.60L154.97 18.45L157.86 13.60L159.81 13.60L159.83 22L157.65 22L157.63 17.55L155.46 21.17L154.41 21.17L152.26 17.67L152.26 22ZM164.92 18.26L164.92 18.26L164.92 13.60L167.30 13.60L167.30 18.19Q167.30 20.20 168.89 20.20L168.89 20.20Q170.48 20.20 170.48 18.19L170.48 18.19L170.48 13.60L172.82 13.60L172.82 18.26Q172.82 20.13 171.78 21.15Q170.74 22.17 168.87 22.17L168.87 22.17Q167.00 22.17 165.96 21.15Q164.92 20.13 164.92 18.26ZM180.24 22L177.91 22L177.91 13.60L179.86 13.60L183.57 18.07L183.57 13.60L185.90 13.60L185.90 22L183.95 22L180.24 17.52L180.24 22ZM193.44 22L191.06 22L191.06 13.60L193.44 13.60L193.44 22ZM200.41 15.48L197.82 15.48L197.82 13.60L205.35 13.60L205.35 15.48L202.78 15.48L202.78 22L200.41 22L200.41 15.48ZM211.84 18.95L208.64 13.60L211.15 13.60L213.14 16.94L215.13 13.60L217.43 13.60L214.22 18.99L214.22 22L211.84 22L211.84 18.95Z" fill="#FFFFFF" x="107.97"/></svg>