<svg xmlns="http://www.w3.org/2000/svg" width="210.88" height="35" viewBox="0 0 210.88 35"><rect class="svg__rect" x="0" y="0" width="142.47" height="35" fill="#000000"/><rect class="svg__rect" x="140.47" y="0" width="70.41" height="35" fill="#E46C17"/><path class="svg__text" d="M15.69 22L14.22 22L14.22 13.47L16.14 13.47L18.60 20.01L21.06 13.47L22.97 13.47L22.97 22L21.49 22L21.49 19.19L21.64 15.43L19.12 22L18.06 22L15.55 15.43L15.69 19.19L15.69 22ZM27.44 18.00L27.44 18.00L27.44 17.52Q27.44 16.28 27.88 15.32Q28.33 14.37 29.13 13.86Q29.94 13.35 30.98 13.35Q32.02 13.35 32.83 13.85Q33.64 14.35 34.07 15.29Q34.51 16.23 34.52 17.48L34.52 17.48L34.52 17.96Q34.52 19.21 34.09 20.16Q33.65 21.10 32.85 21.61Q32.04 22.12 30.99 22.12L30.99 22.12Q29.96 22.12 29.14 21.61Q28.33 21.10 27.89 20.17Q27.45 19.23 27.44 18.00ZM28.92 17.46L28.92 17.96Q28.92 19.36 29.47 20.13Q30.02 20.90 30.99 20.90L30.99 20.90Q31.98 20.90 32.51 20.15Q33.04 19.40 33.04 17.96L33.04 17.96L33.04 17.51Q33.04 16.09 32.50 15.34Q31.97 14.58 30.98 14.58L30.98 14.58Q30.02 14.58 29.48 15.33Q28.94 16.09 28.92 17.46L28.92 17.46ZM44.94 22L38.59 22L38.59 21.04L43.00 14.66L38.62 14.66L38.62 13.47L44.80 13.47L44.80 14.41L40.38 20.82L44.94 20.82L44.94 22ZM50.76 22L49.29 22L49.29 13.47L50.76 13.47L50.76 22ZM60.93 22L55.57 22L55.57 13.47L57.06 13.47L57.06 20.82L60.93 20.82L60.93 22ZM70.41 22L65.05 22L65.05 13.47L66.54 13.47L66.54 20.82L70.41 20.82L70.41 22ZM75.31 22L73.77 22L76.99 13.47L78.32 13.47L81.55 22L80.01 22L79.31 20.01L76.00 20.01L75.31 22ZM77.66 15.28L76.42 18.82L78.89 18.82L77.66 15.28ZM91.22 18.19L91.22 18.19L91.22 17.39Q91.22 16.19 91.64 15.27Q92.07 14.35 92.87 13.85Q93.67 13.35 94.72 13.35L94.72 13.35Q96.13 13.35 96.99 14.12Q97.85 14.89 97.99 16.29L97.99 16.29L96.52 16.29Q96.41 15.37 95.98 14.96Q95.55 14.55 94.72 14.55L94.72 14.55Q93.75 14.55 93.23 15.26Q92.72 15.96 92.70 17.33L92.70 17.33L92.70 18.09Q92.70 19.47 93.20 20.20Q93.69 20.92 94.65 20.92L94.65 20.92Q95.52 20.92 95.96 20.53Q96.40 20.14 96.52 19.22L96.52 19.22L97.99 19.22Q97.87 20.59 96.99 21.35Q96.11 22.12 94.65 22.12L94.65 22.12Q93.63 22.12 92.85 21.63Q92.08 21.15 91.65 20.26Q91.23 19.37 91.22 18.19ZM107.66 22L102.31 22L102.31 13.47L103.79 13.47L103.79 20.82L107.66 20.82L107.66 22ZM111.65 19.16L111.65 19.16L111.65 13.47L113.13 13.47L113.13 19.18Q113.13 20.03 113.56 20.48Q114.00 20.93 114.84 20.93L114.84 20.93Q116.55 20.93 116.55 19.13L116.55 19.13L116.55 13.47L118.03 13.47L118.03 19.17Q118.03 20.53 117.16 21.32Q116.29 22.12 114.84 22.12L114.84 22.12Q113.38 22.12 112.51 21.33Q111.65 20.55 111.65 19.16ZM125.71 22L122.60 22L122.60 13.47L125.52 13.47Q126.97 13.47 127.72 14.05Q128.48 14.63 128.48 15.78L128.48 15.78Q128.48 16.36 128.16 16.83Q127.85 17.30 127.24 17.56L127.24 17.56Q127.93 17.75 128.31 18.26Q128.69 18.78 128.69 19.51L128.69 19.51Q128.69 20.71 127.92 21.36Q127.14 22 125.71 22L125.71 22ZM124.08 18.15L124.08 20.82L125.73 20.82Q126.42 20.82 126.82 20.47Q127.21 20.13 127.21 19.51L127.21 19.51Q127.21 18.18 125.85 18.15L125.85 18.15L124.08 18.15ZM124.08 14.66L124.08 17.06L125.53 17.06Q126.22 17.06 126.61 16.75Q127.00 16.43 127.00 15.86L127.00 15.86Q127.00 15.23 126.64 14.95Q126.28 14.66 125.52 14.66L125.52 14.66L124.08 14.66Z" fill="#FFFFFF"/><path class="svg__text" d="M159.20 22L154.66 22L154.66 13.60L158.96 13.60Q160.56 13.60 161.40 14.19Q162.25 14.79 162.25 15.79L162.25 15.79Q162.25 16.39 161.95 16.87Q161.65 17.34 161.11 17.62L161.11 17.62Q161.84 17.87 162.24 18.41Q162.65 18.94 162.65 19.70L162.65 19.70Q162.65 20.80 161.76 21.40Q160.87 22 159.20 22L159.20 22ZM157.01 18.58L157.01 20.28L159.01 20.28Q160.25 20.28 160.25 19.43L160.25 19.43Q160.25 18.58 159.01 18.58L159.01 18.58L157.01 18.58ZM157.01 15.31L157.01 16.94L158.64 16.94Q159.84 16.94 159.84 16.12L159.84 16.12Q159.84 15.31 158.64 15.31L158.64 15.31L157.01 15.31ZM171.91 22L167.37 22L167.37 13.60L171.67 13.60Q173.27 13.60 174.11 14.19Q174.95 14.79 174.95 15.79L174.95 15.79Q174.95 16.39 174.66 16.87Q174.36 17.34 173.82 17.62L173.82 17.62Q174.54 17.87 174.95 18.41Q175.36 18.94 175.36 19.70L175.36 19.70Q175.36 20.80 174.47 21.40Q173.58 22 171.91 22L171.91 22ZM169.72 18.58L169.72 20.28L171.71 20.28Q172.96 20.28 172.96 19.43L172.96 19.43Q172.96 18.58 171.71 18.58L171.71 18.58L169.72 18.58ZM169.72 15.31L169.72 16.94L171.35 16.94Q172.55 16.94 172.55 16.12L172.55 16.12Q172.55 15.31 171.35 15.31L171.35 15.31L169.72 15.31ZM179.49 21.24L179.49 21.24L180.27 19.49Q180.83 19.86 181.58 20.09Q182.32 20.32 183.04 20.32L183.04 20.32Q184.41 20.32 184.41 19.64L184.41 19.64Q184.41 19.28 184.02 19.11Q183.63 18.93 182.77 18.74L182.77 18.74Q181.82 18.53 181.18 18.30Q180.54 18.06 180.09 17.55Q179.64 17.03 179.64 16.16L179.64 16.16Q179.64 15.39 180.06 14.77Q180.47 14.15 181.31 13.79Q182.14 13.43 183.35 13.43L183.35 13.43Q184.18 13.43 184.98 13.62Q185.79 13.80 186.40 14.17L186.40 14.17L185.67 15.93Q184.47 15.28 183.34 15.28L183.34 15.28Q182.63 15.28 182.31 15.49Q181.99 15.70 181.99 16.04L181.99 16.04Q181.99 16.37 182.37 16.54Q182.75 16.71 183.60 16.89L183.60 16.89Q184.56 17.10 185.19 17.33Q185.82 17.56 186.29 18.07Q186.75 18.58 186.75 19.46L186.75 19.46Q186.75 20.21 186.33 20.83Q185.91 21.44 185.07 21.80Q184.23 22.17 183.03 22.17L183.03 22.17Q182.01 22.17 181.05 21.92Q180.09 21.67 179.49 21.24ZM193.70 22L191.33 22L191.33 13.60L195.17 13.60Q196.31 13.60 197.15 13.98Q197.99 14.35 198.44 15.06Q198.90 15.76 198.90 16.71L198.90 16.71Q198.90 17.62 198.47 18.30Q198.05 18.98 197.26 19.36L197.26 19.36L199.07 22L196.52 22L195.00 19.77L193.70 19.77L193.70 22ZM193.70 15.47L193.70 17.93L195.02 17.93Q195.76 17.93 196.13 17.61Q196.50 17.29 196.50 16.71L196.50 16.71Q196.50 16.12 196.13 15.79Q195.76 15.47 195.02 15.47L195.02 15.47L193.70 15.47Z" fill="#FFFFFF" x="153.47"/></svg>